Coordinates
version=1
nRows=11
nColumns=46
inDegrees=yes

Units are S.I. units (second, meters, Newtons, ...)
Angles are in degrees.

endheader
time	pelvis_tilt	pelvis_list	pelvis_rotation	pelvis_tx	pelvis_ty	pelvis_tz	bb_angle	bb_tx	bb_ty	bb_tz	hip_flexion_r	hip_adduction_r	hip_rotation_r	knee_angle_r	knee_angle_r_beta	ankle_angle_r	subtalar_angle_r	mtp_angle_r	crank_angle_r	hip_flexion_l	hip_adduction_l	hip_rotation_l	knee_angle_l	knee_angle_l_beta	ankle_angle_l	subtalar_angle_l	mtp_angle_l	crank_angle_l	lumbar_extension	lumbar_bending	lumbar_rotation	arm_flex_r	arm_add_r	arm_rot_r	elbow_flex_r	pro_sup_r	wrist_flex_r	wrist_dev_r	arm_flex_l	arm_add_l	arm_rot_l	elbow_flex_l	pro_sup_l	wrist_flex_l	wrist_dev_l
      7.50500000	    -17.55151457	     -3.02450607	     -7.96039648	      0.16035744	      1.15403206	     -0.22472862	      0.00000000	      0.50000000	      0.00000000	      0.25000000	     66.10946773	      6.43882426	      6.13344604	     61.56867244	      1.07457605	     15.19615600	    -11.14939005	      0.00000000	      0.00000000	     50.83232836	    -11.23163856	      2.19213706	     69.29243946	      1.20938122	    -12.72484062	     -6.97728552	      0.00000000	      0.00000000	    -60.46325044	      0.74096436	      1.57501831	     89.53866504	      0.26367980	     33.39382627	     45.02391203	     29.75088374	      0.00000000	      0.00000000	     89.38607286	    -20.45720348	     34.05474054	     42.91492825	     29.38025127	      0.00000000	      0.00000000
      7.51000000	    -17.36623178	     -2.36213504	     -7.72704870	      0.16109199	      1.15233335	     -0.22447178	      0.00000000	      0.50000000	      0.00000000	      0.25000000	     64.70366813	      5.81825550	      6.73695748	     59.20479673	      1.03331864	     14.42889767	    -10.85285411	      0.00000000	      0.00000000	     51.95667238	    -10.58083238	      2.18769921	     72.03723851	      1.25728700	    -12.12814918	     -7.05889140	      0.00000000	      0.00000000	    -60.49627326	      0.37788487	      0.98956789	     89.50854018	      0.16591886	     33.35475398	     44.96291957	     29.74599020	      0.00000000	      0.00000000	     89.40866267	    -20.36995126	     34.10599964	     43.11309879	     29.44740498	      0.00000000	      0.00000000
      7.51500000	    -17.25964503	     -2.01586935	     -7.34404757	      0.16164608	      1.15009129	     -0.22375776	      0.00000000	      0.50000000	      0.00000000	      0.25000000	     63.33334441	      5.35082220	      7.03871793	     56.85282101	      0.99226892	     13.30382054	    -11.33912344	      0.00000000	      0.00000000	     53.34591336	    -10.17068283	      2.49343976	     74.93273648	      1.30782297	    -11.29901997	     -6.53031096	      0.00000000	      0.00000000	    -60.43982072	      0.30314509	      0.51498866	     89.48743315	      0.16336449	     33.48583559	     44.80832503	     29.77246234	      0.00000000	      0.00000000	     89.38408006	    -20.63872479	     34.22872476	     43.64504572	     29.64940559	      0.00000000	      0.00000000
      7.52000000	    -17.01940211	     -1.24077698	     -6.94705818	      0.16234261	      1.14816022	     -0.22326479	      0.00000000	      0.50000000	      0.00000000	      0.25000000	     61.89003407	      4.50551541	      7.57252568	     54.63954414	      0.95363995	     12.50261165	    -11.07714296	      0.00000000	      0.00000000	     54.47117811	     -9.33702784	      2.45710476	     77.58741636	      1.35415587	    -10.74761040	     -6.64140212	      0.00000000	      0.00000000	    -60.45647494	     -0.07764540	     -0.23682930	     89.44452159	     -0.05321640	     33.47272300	     44.71111760	     29.76963414	      0.00000000	      0.00000000	     89.39611042	    -20.54472888	     34.36078251	     43.79267162	     29.71059281	      0.00000000	      0.00000000
      7.52500000	    -16.78797980	     -0.54036627	     -6.50102562	      0.16299244	      1.14613615	     -0.22265666	      0.00000000	      0.50000000	      0.00000000	      0.25000000	     60.40879042	      3.66191450	      7.95633132	     52.44285852	      0.91530055	     11.64358500	    -11.01171760	      0.00000000	      0.00000000	     55.64707229	     -8.54331308	      2.47656091	     80.19965682	      1.39974807	    -10.18366133	     -6.64088155	      0.00000000	      0.00000000	    -60.43574471	     -0.38341089	     -0.97059209	     89.39703129	     -0.24669253	     33.54063716	     44.55978221	     29.76718262	      0.00000000	      0.00000000	     89.39625414	    -20.50092469	     34.51353605	     43.96472801	     29.77765925	      0.00000000	      0.00000000
      7.53000000	    -16.52617039	     -0.03241864	     -5.94405347	      0.16361226	      1.14409836	     -0.22206539	      0.00000000	      0.50000000	      0.00000000	      0.25000000	     58.82346840	      2.86634148	      8.08845024	     50.21048970	      0.87633836	     10.40090870	    -11.71783941	      0.00000000	      0.00000000	     56.87510519	     -7.84200854	      2.72685246	     82.82942141	      1.44564612	     -9.47129007	     -6.04448603	      0.00000000	      0.00000000	    -60.44862427	     -0.43434789	     -1.69472550	     89.38203646	     -0.39495599	     34.22002317	     44.14402105	     29.84205894	      0.00000000	      0.00000000	     89.36909686	    -20.84608598	     35.03000526	     44.36665782	     29.99812084	      0.00000000	      0.00000000
      7.53500000	    -16.23726696	      0.39856874	     -5.71868117	      0.16450551	      1.14160808	     -0.22061870	      0.00000000	      0.50000000	      0.00000000	      0.25000000	     57.17743783	      2.45926422	      8.44737998	     48.01852636	      0.83808139	      9.48923863	    -11.96243747	      0.00000000	      0.00000000	     58.27013266	     -7.95688282	      2.35317396	     85.70188092	      1.49578000	     -8.91913036	     -5.38862295	      0.00000000	      0.00000000	    -60.39482313	     -0.80673373	     -2.17765651	     89.36516192	     -0.71937759	     35.14629487	     43.69295859	     29.97405361	      0.00000000	      0.00000000	     89.35284809	    -21.18347053	     35.93581640	     44.63581909	     30.26527180	      0.00000000	      0.00000000
      7.54000000	    -16.10167299	      1.27933918	     -5.05221866	      0.16516013	      1.13958719	     -0.21968798	      0.00000000	      0.50000000	      0.00000000	      0.25000000	     55.71304082	      1.32582713	      8.83694805	     45.84867918	      0.80021041	      8.71479455	    -11.70641329	      0.00000000	      0.00000000	     59.55770071	     -6.97030532	      2.27979074	     87.99748974	      1.53584593	     -8.45494107	     -5.28084085	      0.00000000	      0.00000000	    -60.27920157	     -1.13405802	     -3.08841698	     89.29466694	     -1.08137352	     35.25189911	     43.57484426	     30.02220371	      0.00000000	      0.00000000	     89.36198394	    -21.07894946	     36.15650623	     44.79653926	     30.36702009	      0.00000000	      0.00000000
      7.54500000	    -15.89984266	      2.01056090	     -4.21987308	      0.16544259	      1.13783958	     -0.21922009	      0.00000000	      0.50000000	      0.00000000	      0.25000000	     54.11197429	      0.19873966	      9.18363158	     43.64373835	      0.76172693	      7.47548490	    -12.23165415	      0.00000000	      0.00000000	     60.68326391	     -5.64932708	      2.65190481	     90.08818975	      1.57233553	     -7.63139739	     -5.04218649	      0.00000000	      0.00000000	    -60.14597504	     -1.21558354	     -4.18153915	     89.33159528	     -1.52038967	     36.66187064	     43.04909845	     30.21264731	      0.00000000	      0.00000000	     89.38466511	    -21.46956035	     37.21302578	     44.99545415	     30.62699381	      0.00000000	      0.00000000
      7.55000000	    -15.88051157	      2.93163836	     -3.40395085	      0.16590574	      1.13568969	     -0.21809841	      0.00000000	      0.50000000	      0.00000000	      0.25000000	     52.78781831	     -1.04927375	      9.56636831	     41.67926535	      0.72744041	      6.77638366	    -12.03378391	      0.00000000	      0.00000000	     62.07421868	     -4.46052427	      2.61115631	     92.16989045	      1.60866806	     -7.08505325	     -5.06600271	      0.00000000	      0.00000000	    -59.86434353	     -1.56605230	     -5.22465774	     89.27309175	     -2.00192886	     36.76665035	     42.82503466	     30.22243748	      0.00000000	      0.00000000	     89.39380392	    -21.28800161	     37.42174931	     45.15237359	     30.70288590	      0.00000000	      0.00000000
      7.55500000	    -15.25479648	      4.48695351	     -2.74156970	      0.16736276	      1.13526866	     -0.21812884	      0.00000000	      0.50000000	      0.00000000	      0.25000000	     50.90815482	     -2.93273672	     10.08827621	     39.83605974	      0.69527040	      5.92024405	    -11.69071763	      0.00000000	      0.00000000	     62.56727830	     -2.94921618	      1.71238116	     93.93774695	      1.63952298	     -6.51561612	     -4.91229412	      0.00000000	      0.00000000	    -60.17649251	     -2.31376197	     -7.04156686	     89.36114321	     -2.73808258	     39.10204780	     42.12459984	     30.56083236	      0.00000000	      0.00000000	     89.42636344	    -21.72178442	     38.82040688	     45.39253981	     31.01351815	      0.00000000	      0.00000000
